<svg width="18" height="23" viewBox="0 0 18 23" fill="none" xmlns="http://www.w3.org/2000/svg">
<path d="M8.99992 14.3334C8.0277 14.3334 7.20131 13.9931 6.52075 13.3125C5.8402 12.632 5.49992 11.8056 5.49992 10.8334V3.83337C5.49992 2.86115 5.8402 2.03476 6.52075 1.35421C7.20131 0.673652 8.0277 0.333374 8.99992 0.333374C9.97214 0.333374 10.7985 0.673652 11.4791 1.35421C12.1596 2.03476 12.4999 2.86115 12.4999 3.83337V10.8334C12.4999 11.8056 12.1596 12.632 11.4791 13.3125C10.7985 13.9931 9.97214 14.3334 8.99992 14.3334ZM7.83325 22.5V18.9125C5.81103 18.6403 4.13881 17.7362 2.81659 16.2C1.49436 14.6639 0.833252 12.875 0.833252 10.8334H3.16659C3.16659 12.4473 3.73534 13.823 4.87284 14.9605C6.01034 16.098 7.38603 16.6667 8.99992 16.6667C10.6138 16.6667 11.9895 16.098 13.127 14.9605C14.2645 13.823 14.8333 12.4473 14.8333 10.8334H17.1666C17.1666 12.875 16.5055 14.6639 15.1833 16.2C13.861 17.7362 12.1888 18.6403 10.1666 18.9125V22.5H7.83325ZM8.99992 12C9.33047 12 9.60756 11.8882 9.83117 11.6646C10.0548 11.441 10.1666 11.1639 10.1666 10.8334V3.83337C10.1666 3.50282 10.0548 3.22573 9.83117 3.00212C9.60756 2.77851 9.33047 2.66671 8.99992 2.66671C8.66936 2.66671 8.39228 2.77851 8.16867 3.00212C7.94506 3.22573 7.83325 3.50282 7.83325 3.83337V10.8334C7.83325 11.1639 7.94506 11.441 8.16867 11.6646C8.39228 11.8882 8.66936 12 8.99992 12Z" fill="white"/>
</svg>
