<svg width="222" height="48" viewBox="0 0 222 48" fill="none" xmlns="http://www.w3.org/2000/svg">
<rect y="15" width="2" height="18" rx="1" fill="#B0DBA4"/>
<rect x="4" y="15" width="2" height="18" rx="1" fill="#B0DBA4"/>
<rect x="8" y="15" width="2" height="18" rx="1" fill="#B0DBA4"/>
<rect width="2" height="26" rx="1" transform="matrix(-1 0 0 1 14 11)" fill="#B0DBA4"/>
<rect width="2" height="26" rx="1" transform="matrix(-1 0 0 1 18 11)" fill="#B0DBA4"/>
<rect width="2" height="44" rx="1" transform="matrix(-1 0 0 1 22 2)" fill="#B0DBA4"/>
<rect width="2" height="44" rx="1" transform="matrix(-1 0 0 1 26 2)" fill="#B0DBA4"/>
<rect width="2" height="9" rx="1" transform="matrix(-1 0 0 1 30 19.5)" fill="#B0DBA4"/>
<rect width="2" height="48" rx="1" transform="matrix(-1 0 0 1 34 0)" fill="#B0DBA4"/>
<rect width="2" height="34" rx="1" transform="matrix(-1 0 0 1 38 7)" fill="#B0DBA4"/>
<rect width="2" height="34" rx="1" transform="matrix(-1 0 0 1 42 7)" fill="#B0DBA4"/>
<rect x="44" y="1" width="2" height="46" rx="1" fill="#B0DBA4"/>
<rect x="48" y="1" width="2" height="46" rx="1" fill="#B0DBA4"/>
<rect x="52" width="2" height="48" rx="1" fill="#B0DBA4"/>
<rect width="2" height="42" rx="1" transform="matrix(-1 0 0 1 58 3)" fill="#B0DBA4"/>
<rect width="2" height="37" rx="1" transform="matrix(-1 0 0 1 62 5.5)" fill="#B0DBA4"/>
<rect width="2" height="37" rx="1" transform="matrix(-1 0 0 1 66 5.5)" fill="#B0DBA4"/>
<rect width="2" height="35" rx="1" transform="matrix(-1 0 0 1 70 6.5)" fill="#B0DBA4"/>
<rect width="2" height="35" rx="1" transform="matrix(-1 0 0 1 74 6.5)" fill="#B0DBA4"/>
<rect width="2" height="37" rx="1" transform="matrix(-1 0 0 1 78 5.5)" fill="#B0DBA4"/>
<rect width="2" height="42" rx="1" transform="matrix(-1 0 0 1 82 3)" fill="#B0DBA4"/>
<rect width="2" height="42" rx="1" transform="matrix(-1 0 0 1 86 3)" fill="#B0DBA4"/>
<rect width="2" height="18" rx="1" transform="matrix(-1 0 0 1 90 15)" fill="#B0DBA4"/>
<rect x="92" y="11" width="2" height="26" rx="1" fill="#B0DBA4"/>
<rect x="96" y="6.5" width="2" height="35" rx="1" fill="#B0DBA4"/>
<rect x="100" y="15" width="2" height="18" rx="1" fill="#B0DBA4"/>
<rect width="2" height="18" rx="1" transform="matrix(-1 0 0 1 106 15)" fill="#B0DBA4"/>
<rect width="2" height="48" rx="1" transform="matrix(-1 0 0 1 110 0)" fill="#B0DBA4"/>
<rect width="2" height="26" rx="1" transform="matrix(-1 0 0 1 114 11)" fill="#B0DBA4"/>
<rect width="2" height="26" rx="1" transform="matrix(-1 0 0 1 118 11)" fill="#B0DBA4"/>
<rect width="2" height="26" rx="1" transform="matrix(-1 0 0 1 122 11)" fill="#B0DBA4"/>
<rect width="2" height="9" rx="1" transform="matrix(-1 0 0 1 126 19.5)" fill="#B0DBA4"/>
<rect width="2" height="9" rx="1" transform="matrix(-1 0 0 1 130 19.5)" fill="#B0DBA4"/>
<rect width="2" height="9" rx="1" transform="matrix(-1 0 0 1 134 19.5)" fill="#B0DBA4"/>
<rect x="136" y="4" width="2" height="40" rx="1" fill="#B0DBA4"/>
<rect x="140" y="4" width="2" height="40" rx="1" fill="#B0DBA4"/>
<rect x="144" y="4" width="2" height="40" rx="1" fill="#B0DBA4"/>
<rect width="2" height="40" rx="1" transform="matrix(-1 0 0 1 150 4)" fill="#B0DBA4"/>
<rect width="2" height="40" rx="1" transform="matrix(-1 0 0 1 154 4)" fill="#B0DBA4"/>
<rect width="2" height="40" rx="1" transform="matrix(-1 0 0 1 158 4)" fill="#B0DBA4"/>
<rect width="2" height="48" rx="1" transform="matrix(-1 0 0 1 162 0)" fill="#B0DBA4"/>
<rect width="2" height="48" rx="1" transform="matrix(-1 0 0 1 166 0)" fill="#B0DBA4"/>
<rect width="2" height="19" rx="1" transform="matrix(-1 0 0 1 170 14.5)" fill="#B0DBA4"/>
<rect width="2" height="19" rx="1" transform="matrix(-1 0 0 1 174 14.5)" fill="#B0DBA4"/>
<rect width="2" height="48" rx="1" transform="matrix(-1 0 0 1 178 0)" fill="#B0DBA4"/>
<rect width="2" height="48" rx="1" transform="matrix(-1 0 0 1 182 0)" fill="#B0DBA4"/>
<rect x="184" width="2" height="48" rx="1" fill="#B0DBA4"/>
<rect x="188" y="8" width="2" height="32" rx="1" fill="#B0DBA4"/>
<rect width="2" height="32" rx="1" transform="matrix(-1 0 0 1 194 8)" fill="#B0DBA4"/>
<rect width="2" height="32" rx="1" transform="matrix(-1 0 0 1 198 8)" fill="#B0DBA4"/>
<rect width="2" height="32" rx="1" transform="matrix(-1 0 0 1 202 8)" fill="#B0DBA4"/>
<rect width="2" height="32" rx="1" transform="matrix(-1 0 0 1 206 8)" fill="#B0DBA4"/>
<rect width="2" height="20" rx="1" transform="matrix(-1 0 0 1 210 14)" fill="#B0DBA4"/>
<rect width="2" height="20" rx="1" transform="matrix(-1 0 0 1 214 14)" fill="#B0DBA4"/>
<rect width="2" height="20" rx="1" transform="matrix(-1 0 0 1 218 14)" fill="#B0DBA4"/>
<rect width="2" height="48" rx="1" transform="matrix(-1 0 0 1 222 0)" fill="#B0DBA4"/>
</svg>
